<?xml version="1.0" encoding="utf-8"?>
<!-- Generator: Adobe Illustrator 25.3.1, SVG Export Plug-In . SVG Version: 6.00 Build 0)  -->
<svg version="1.1" id="Layer_1" xmlns="http://www.w3.org/2000/svg" xmlns:xlink="http://www.w3.org/1999/xlink" x="0px" y="0px"
	 viewBox="0 0 2500 2500" style="enable-background:new 0 0 2500 2500;" xml:space="preserve">
<style type="text/css">
	.st0{fill:#006B4F;}
	.st1{fill:#ED2D43;}
	.st2{fill:#FFFFFF;}
</style>
<desc>Created using Figma</desc>
<g>
	<g>
		<g>
			<g>
				<g>
					<path class="st0" d="M1232.6,2366.9H404.3c-132.8,0-240.9-108-240.9-240.8V362.4c0-132.9,108.1-241,240.9-241h828.3
						c132.8,0,240.9,108.1,240.9,241v1763.8C1473.5,2258.9,1365.4,2366.9,1232.6,2366.9z M404.3,158.3c-112.5,0-204,91.5-204,204.1
						v1763.8c0,112.4,91.5,203.9,204,203.9h828.3c112.5,0,204-91.4,204-203.9V362.4c0-112.5-91.5-204.1-204-204.1H404.3z"/>
				</g>
				<g>
					<path class="st0" d="M1455.1,409.1H181.9c-10.2,0-18.5-8.3-18.5-18.5c0-10.2,8.3-18.5,18.5-18.5h1273.1
						c10.2,0,18.5,8.3,18.5,18.5C1473.5,400.9,1465.3,409.1,1455.1,409.1z"/>
				</g>
				<g>
					<path class="st0" d="M1455.1,2058.1H181.9c-10.2,0-18.5-8.3-18.5-18.5c0-10.2,8.3-18.5,18.5-18.5h1273.1
						c10.2,0,18.5,8.3,18.5,18.5C1473.5,2049.9,1465.3,2058.1,1455.1,2058.1z"/>
				</g>
				<g>
					<path class="st0" d="M980.7,2268.3H656.2c-10.2,0-18.5-8.3-18.5-18.5v-111.4c0-10.2,8.3-18.5,18.5-18.5h324.5
						c10.2,0,18.5,8.3,18.5,18.5v111.4C999.2,2260.1,990.9,2268.3,980.7,2268.3z M674.7,2231.4h287.6v-74.5H674.7V2231.4z"/>
				</g>
				<g>
					<path class="st0" d="M974.5,292.4H662.4c-10.2,0-18.5-8.3-18.5-18.5c0-10.2,8.3-18.5,18.5-18.5h312.1
						c10.2,0,18.5,8.3,18.5,18.5C992.9,284.2,984.7,292.4,974.5,292.4z"/>
				</g>
				<g>
					<path class="st0" d="M818.7,1694.5c-257.5,0-467-209.6-467-467.2c0-257.5,209.5-467.1,467-467.1
						c257.5,0,467.1,209.5,467.1,467.1C1285.8,1484.9,1076.3,1694.5,818.7,1694.5z M818.7,797.1c-237.1,0-430,193-430,430.1
						c0,237.3,192.9,430.3,430,430.3c237.2,0,430.2-193,430.2-430.3C1248.9,990.1,1055.9,797.1,818.7,797.1z"/>
				</g>
			</g>
		</g>
	</g>
	<g>
		<g>
			<path class="st1" d="M640.9,1179.9c0.9,0,1.6,0,2.3,0c33,0,66,0,99,0.1c2,0,2.3-0.6,2.3-2.4c-0.1-33.9,0-67.8,0-101.7
				c0-8.6-1.7-16.7-7.3-23.5c-5.2-6.4-12.2-9.8-19.8-12.3c-9.3-3-18.5-3.1-27.9-0.6c-2.2,0.6-4.3,1.4-6,3c-0.8,0.7-1.1,0.4-1.5-0.3
				c-7.1-12.2-13.3-24.8-17.7-38.2c-1.9-5.8-0.6-12.2,3.5-17.4c3.8-4.9,8.7-8.2,14.1-11c10.6-5.3,21.7-9.5,33.5-11.1
				c24.8-3.4,45.4,4.1,60.7,24.6c11.6,15.5,18,33,21.1,51.9c1.6,10,2.5,20.1,2.5,30.3c0,35.5,0,71-0.1,106.6c0,1.9,0.5,2.2,2.3,2.2
				c9-0.1,18.1,0,27.1-0.1c1,0,1.8,0.2,2.5,1c16.7,17.1,33.3,34.1,50,51.1c0.2,0.2,0.4,0.5,0.6,0.7c-0.7,0.5-1.4,0.2-2,0.2
				c-26.1,0-52.2,0-78.3,0c-1.7,0-2.2,0.3-2.2,2.1c0.1,49,0,98,0,147c0,16.4,7,29.2,20.1,38.7c5.8,4.2,12.6,6.1,19.5,7.3
				c7.7,1.3,15.4,1.7,23.2,1c10.1-0.9,19.5-3.9,28.6-8.3c13.2-6.3,24.9-14.9,35.8-24.6c13.2-11.8,25.2-24.8,35.2-39.5
				c9.7-14.5,16.9-30,20-47.3c0.7-4,1.2-8.1,1.5-12.1c0.1-1.2-0.2-1.4-1.3-1.3c-2.9,0.3-5.9,0.5-8.8,0.8c-7.1,0.7-14.1,0-21.1-1.2
				c-10.4-1.7-20.1-5.2-28.5-11.6c-9.4-7.1-15.5-16.5-19-27.5c-5.2-16.2-6.9-32.8-3.4-49.5c3.3-15.9,11.1-29.3,24.6-38.9
				c7.8-5.6,16.8-8.2,26.1-9.8c9.2-1.5,18.5-2,27.7-1.1c16.2,1.5,30.8,7.2,43.2,17.7c20.9,17.5,34.5,39.7,41.2,66.1
				c4.2,16.5,5.1,33.3,3.9,50.2c-2.4,32.8-13.8,62.6-31.6,89.9c-17.6,27-38.8,50.8-64.6,70.3c-21.3,16.1-45,27.4-71,33.6
				c-14.9,3.5-30,5.2-45.2,5.3c-14.3,0.1-27.7-3.6-40.5-9.7c-22.6-10.8-41.6-26.2-57.1-45.9c-6.2-7.8-11-16.4-13.7-26.1
				c-0.3-1-0.3-2-0.3-3c0-56.8,0-113.6,0-170.4c0-1.8-0.4-2.2-2.2-2.2c-16.4,0.1-32.8,0-49.1,0.1c-1,0-1.8-0.1-2.5-0.9
				c-16.5-17.3-32.9-34.5-49.4-51.7C641.1,1180.3,641.1,1180.2,640.9,1179.9z"/>
		</g>
	</g>
	<g>
		<path class="st2" d="M2281.6,2378.6l-1209,0c-77.1,0-139.6-62.5-139.6-139.6l0-559.2c0-77.1,62.5-139.6,139.6-139.6l1209,0
			c77.1,0,139.6,62.5,139.6,139.6l0,559.2C2421.3,2316.1,2358.8,2378.6,2281.6,2378.6z"/>
		<g>
			<g>
				<g>
					<path class="st1" d="M2286.6,2378.6l-1218.9,0c-74.3,0-134.7-60.4-134.7-134.7l0-569.1c0-74.3,60.4-134.7,134.7-134.7l1218.9,0
						c74.3,0,134.7,60.4,134.7,134.7l0,569.1C2421.3,2318.2,2360.9,2378.6,2286.6,2378.6z M1067.7,1564.6
						c-60.8,0-110.2,49.4-110.2,110.2l0,569.1c0,60.8,49.5,110.2,110.2,110.2l1218.9,0c60.8,0,110.2-49.4,110.2-110.2l0-569.1
						c0-60.8-49.4-110.2-110.2-110.2L1067.7,1564.6z"/>
				</g>
				<g>
					<path class="st1" d="M2409,1877.8l-1463.8,0c-6.7,0-12.2-5.5-12.2-12.2l0-190.7c0-6.8,5.5-12.2,12.2-12.2l1463.8,0
						c6.8,0,12.2,5.5,12.2,12.2v190.7C2421.3,1872.3,2415.8,1877.8,2409,1877.8z M957.5,1853.3l1439.3,0v-166.3l-1439.3,0
						L957.5,1853.3z"/>
				</g>
				<g>
					<path class="st1" d="M2029.5,2063.7l-704.7,0c-6.8,0-12.2-5.5-12.2-12.2s5.5-12.2,12.2-12.2l704.7,0c6.8,0,12.2,5.5,12.2,12.2
						S2036.3,2063.7,2029.5,2063.7z"/>
				</g>
				<g>
					<path class="st1" d="M2278.1,2242.3h-390.5c-6.8,0-12.2-5.5-12.2-12.2c0-6.8,5.5-12.2,12.2-12.2l390.5,0
						c6.8,0,12.2,5.5,12.2,12.2C2290.3,2236.9,2284.9,2242.3,2278.1,2242.3z"/>
				</g>
			</g>
		</g>
	</g>
</g>
</svg>
