<?xml version="1.0" encoding="utf-8"?>
<!-- Generator: Adobe Illustrator 25.3.1, SVG Export Plug-In . SVG Version: 6.00 Build 0)  -->
<svg version="1.1" id="Layer_1" xmlns="http://www.w3.org/2000/svg" xmlns:xlink="http://www.w3.org/1999/xlink" x="0px" y="0px"
	 viewBox="0 0 2500 2420" style="enable-background:new 0 0 2500 2420;" xml:space="preserve">
<style type="text/css">
	.st0{fill:none;stroke:#006B4F;stroke-width:34.9226;stroke-linecap:round;stroke-linejoin:round;stroke-miterlimit:10;}
	.st1{fill:#ED2D43;}
</style>
<desc>Created using Figma</desc>
<g>
	<g>
		<polygon class="st0" points="1338.4,301 363.8,885.6 2322.7,885.6 		"/>
		<rect x="519" y="885.6" class="st0" width="1648.6" height="116.4"/>
		<rect x="674.1" y="1001.9" class="st0" width="1343.1" height="1112.5"/>
		<rect x="489.9" y="2114.4" class="st0" width="1716.4" height="135.8"/>
		<line class="st0" x1="364.3" y1="2251.1" x2="2357.1" y2="2251.1"/>
		<path class="st0" d="M908.1,2114.4v-566.1c0,0,55.8-349.1,435.2-345.5c379.4,3.6,437.6,334.6,437.6,334.6v577H908.1z"/>
		<path class="st0" d="M1429.6,1733.8l56.7,218.1h-269.1l39.6-218.1c-1.8-1.2-3.6-2.5-5.4-3.7c-4.2-2.9-10.3-7.5-17.1-13.7
			c-29.3-27.1-40.4-58.4-43.9-69.6c-4.7-15-7.2-31-7.2-47.6c0-88.4,71.6-160,160-160c88.4,0,160,71.6,160,160
			c0,20.5-4.9,39.8-6.3,44.4C1481.9,1694.9,1444.4,1723.7,1429.6,1733.8z"/>
	</g>
	<g>
		<g>
			<path class="st1" d="M18.5,1651.2c1.2-0.1,2-0.2,2.9-0.3c42.4-4.9,84.7-9.9,127.1-14.7c2.6-0.3,2.8-1.1,2.6-3.4
				c-5.1-43.5-10.2-87-15.2-130.5c-1.3-11-4.6-21.2-12.8-29.1c-7.6-7.4-17.1-10.8-27.2-12.8c-12.4-2.5-24.3-1.3-35.9,3.4
				c-2.7,1.1-5.3,2.5-7.3,4.7c-0.9,1-1.3,0.7-2-0.2c-10.9-14.6-20.8-29.9-28.4-46.4c-3.3-7.2-2.6-15.5,1.9-22.9
				c4.1-6.8,10-11.9,16.5-16.2c12.8-8.4,26.4-15.4,41.3-19.2c31.4-8,58.8-1.5,81.6,22.5c17.2,18.2,28.1,39.7,34.9,63.5
				c3.6,12.6,6.2,25.5,7.7,38.5c5.2,45.6,10.6,91.2,15.8,136.8c0.3,2.4,1,2.8,3.2,2.5c11.6-1.5,23.2-2.7,34.8-4.1
				c1.3-0.2,2.3,0,3.3,0.9c23.9,19.4,47.9,38.8,71.8,58.2c0.3,0.2,0.6,0.5,0.9,0.8c-0.8,0.7-1.7,0.5-2.6,0.6
				c-33.5,3.9-67,7.8-100.5,11.7c-2.1,0.2-2.7,0.7-2.5,3c7.4,62.9,14.7,125.8,22,188.7c2.4,21,13.3,36.4,31.6,46.6
				c8,4.5,17,5.9,26.1,6.4c10.1,0.5,20.1-0.2,30-2.2c12.8-2.7,24.5-8,35.5-14.9c16.1-10,29.8-22.8,42.3-36.9
				c15.2-17.1,28.7-35.5,39.3-56c10.3-20,17.2-41.1,18.7-63.7c0.4-5.3,0.3-10.5,0.1-15.8c-0.1-1.5-0.5-1.8-1.8-1.5
				c-3.7,0.8-7.5,1.5-11.2,2.3c-9,2-18.2,2-27.3,1.6c-13.6-0.6-26.5-3.7-38.3-10.7c-13.1-7.7-22.4-18.8-28.5-32.5
				c-9-20-13.7-41.1-11.7-63c1.9-20.9,9.9-39.3,25.7-53.6c9.1-8.3,20.3-13.1,32-16.4c11.6-3.3,23.4-5.3,35.4-5.6
				c21-0.5,40.6,4.7,58.1,16.3c29.4,19.4,50.3,45.8,62.8,78.7c7.8,20.5,11.6,41.9,12.5,63.8c1.8,42.5-8.3,82.4-27.1,120.2
				c-18.5,37.3-42.2,71-72.4,99.9c-24.9,23.9-53.6,41.9-86.1,53.7c-18.6,6.7-37.7,11.1-57.3,13.5c-18.3,2.3-36.1-0.4-53.4-6.4
				c-30.6-10.5-57.2-27.5-80.1-50.4c-9.1-9.1-16.6-19.4-21.4-31.4c-0.5-1.2-0.7-2.5-0.8-3.8c-8.5-72.9-17-145.8-25.4-218.7
				c-0.3-2.3-0.8-2.8-3.2-2.5c-21,2.5-42,4.9-63,7.4c-1.2,0.1-2.3,0.2-3.3-0.7c-23.7-19.7-47.4-39.3-71.1-59
				C18.8,1651.8,18.8,1651.6,18.5,1651.2z"/>
		</g>
	</g>
	<g>
		<g>
			<path class="st1" d="M2105.3,1690.6c0.8,0.2,1.5,0.3,2.1,0.5c30.3,6.7,60.6,13.4,90.8,20.2c1.8,0.4,2.2-0.1,2.6-1.7
				c6.9-31.1,13.8-62.2,20.7-93.3c1.7-7.9,1.9-15.6-1.9-23.1c-3.5-6.9-9.2-11.5-15.6-15.3c-7.9-4.7-16.4-6.7-25.5-6.3
				c-2.1,0.1-4.2,0.5-6.1,1.5c-0.9,0.5-1,0.1-1.3-0.6c-4-12.6-7.1-25.5-8.4-38.6c-0.6-5.7,1.9-11.3,6.7-15.3
				c4.5-3.7,9.7-5.8,15.2-7.2c10.8-2.7,21.8-4.3,33-3.4c23.5,2,40.8,13,50.7,34.9c7.5,16.6,9.8,33.9,8.8,51.9
				c-0.5,9.5-1.8,19-3.9,28.3c-7.3,32.6-14.5,65.2-21.8,97.8c-0.4,1.7,0,2.1,1.6,2.5c8.3,1.8,16.6,3.7,24.9,5.5
				c0.9,0.2,1.6,0.6,2.1,1.4c11.8,19,23.6,38.1,35.5,57.1c0.2,0.2,0.3,0.5,0.4,0.8c-0.7,0.3-1.3-0.1-1.9-0.2
				c-24-5.3-47.9-10.6-71.8-16c-1.5-0.3-2-0.1-2.4,1.5c-9.9,45-19.9,89.9-29.9,134.9c-3.3,15,0.5,28.2,10.6,39.6
				c4.5,5,10.3,8.1,16.4,10.6c6.8,2.8,13.8,4.7,21.1,5.6c9.4,1.2,18.7,0.4,28-1.7c13.4-3.1,25.9-8.5,37.9-15.2
				c14.6-8.1,28.2-17.6,40.3-29.1c11.9-11.3,21.6-24.1,28-39.3c1.5-3.5,2.7-7.1,3.8-10.8c0.3-1,0.1-1.3-0.9-1.5
				c-2.7-0.3-5.5-0.8-8.2-1.1c-6.7-0.8-13-2.9-19.2-5.4c-9.2-3.7-17.3-8.9-23.8-16.5c-7.1-8.4-10.9-18.3-11.9-29.1
				c-1.4-15.9,0.4-31.5,7-46.1c6.3-13.9,16.2-24.6,30.5-30.7c8.3-3.5,17.1-4.1,25.9-3.6c8.7,0.5,17.3,1.9,25.7,4.6
				c14.5,4.7,26.8,12.9,36.1,25c15.6,20.3,23.6,43.4,24.3,69c0.5,16-2.1,31.6-6.7,46.8c-8.9,29.6-25.4,54.6-47.3,76.1
				c-21.6,21.2-45.9,38.7-73.6,51.3c-22.8,10.5-46.8,16-72,16.3c-14.4,0.2-28.6-1.4-42.6-4.4c-13.1-2.8-24.7-8.9-35.2-17.1
				c-18.5-14.5-32.8-32.5-43-53.7c-4.1-8.4-6.8-17.3-7.2-26.7c0-1,0.1-1.9,0.3-2.8c11.6-52.1,23.1-104.2,34.8-156.3
				c0.4-1.7,0.1-2.1-1.6-2.5c-15-3.3-30.1-6.6-45.1-10c-0.9-0.2-1.6-0.4-2.1-1.3c-11.6-19.2-23.2-38.3-34.8-57.5
				C2105.4,1691.1,2105.4,1691,2105.3,1690.6z"/>
		</g>
	</g>
	<g>
		<g>
			<path class="st1" d="M1945.2,425.3c0.7-0.3,1.2-0.5,1.7-0.7c24.7-10.7,49.3-21.4,74-32.1c1.5-0.6,1.5-1.2,0.9-2.5
				c-11-25.3-22-50.6-33-76c-2.8-6.4-6.7-11.9-13.1-15.2c-5.9-3.1-12.3-3.4-18.8-2.8c-7.9,0.7-14.9,3.7-21.1,8.6
				c-1.4,1.1-2.7,2.5-3.5,4.2c-0.4,0.8-0.7,0.6-1.2,0.2c-9.3-6.8-18-14.2-25.6-22.8c-3.3-3.7-4.4-8.9-3.1-14.2c1.2-4.9,3.8-9,7-12.8
				c6.2-7.4,13.1-14.1,21.4-19.1c17.5-10.6,35.2-11.7,53.3-1.3c13.7,7.8,24.2,18.8,32.6,31.9c4.5,7,8.4,14.2,11.7,21.8
				c11.5,26.6,23,53.1,34.5,79.6c0.6,1.4,1.1,1.5,2.4,0.9c6.7-3,13.5-5.9,20.2-8.8c0.7-0.3,1.4-0.4,2.2-0.1c18,7.3,36,14.7,54,22
				c0.2,0.1,0.4,0.2,0.7,0.3c-0.3,0.6-1,0.6-1.4,0.8c-19.5,8.5-39,17-58.5,25.4c-1.2,0.5-1.5,0.9-0.9,2.3
				c15.9,36.6,31.8,73.2,47.7,109.9c5.3,12.2,14.7,19.6,27.6,22.4c5.7,1.2,11.4,0.5,16.9-0.9c6.2-1.5,12.1-3.8,17.7-6.8
				c7.2-4,13.3-9.3,18.7-15.5c7.9-9,13.8-19.2,18.8-30c6.1-13.1,10.8-26.7,13.5-40.9c2.6-14,2.9-27.9-0.4-41.8
				c-0.7-3.2-1.7-6.4-2.8-9.5c-0.3-0.9-0.6-1-1.4-0.6c-2.1,1.2-4.2,2.3-6.3,3.4c-5.1,2.8-10.6,4.6-16.2,6
				c-8.3,2.1-16.7,2.6-25.1,0.6c-9.3-2.3-16.9-7.3-23.2-14.4c-9.1-10.4-15.8-22.3-18.6-35.9c-2.7-12.9-1.2-25.5,5.7-37
				c4-6.7,9.9-11.6,16.3-15.8c6.4-4.1,13.1-7.5,20.4-9.9c12.6-4.1,25.3-4.6,38-0.8c21.3,6.3,38.7,18.4,52.2,36
				c8.5,11,14.6,23.2,19.2,36.2c8.8,25.3,10,51.2,5.6,77.4c-4.4,25.9-12.5,50.5-25.4,73.5c-10.7,19-24.7,35.1-42.2,48.1
				c-10,7.5-20.7,13.6-32.1,18.6c-10.6,4.7-21.9,6.3-33.4,5.9c-20.4-0.7-39.6-6.1-57.5-15.8c-7.1-3.8-13.6-8.7-18.7-15
				c-0.5-0.7-0.9-1.4-1.2-2.1c-18.4-42.4-36.9-84.9-55.2-127.3c-0.6-1.3-1-1.6-2.4-1c-12.2,5.4-24.5,10.7-36.7,16
				c-0.7,0.3-1.3,0.5-2.2,0.2c-17.9-7.6-35.8-15.1-53.7-22.6C1945.5,425.5,1945.4,425.4,1945.2,425.3z"/>
		</g>
	</g>
	<g>
		<g>
			<path class="st1" d="M204.1,560.8c0.7-0.3,1.2-0.5,1.7-0.7c24.7-10.7,49.3-21.4,74-32.1c1.5-0.6,1.5-1.2,0.9-2.5
				c-11-25.3-22-50.6-33-76c-2.8-6.4-6.7-11.9-13.1-15.2c-5.9-3.1-12.3-3.4-18.8-2.8c-7.9,0.7-14.9,3.7-21.1,8.6
				c-1.4,1.1-2.7,2.5-3.5,4.2c-0.4,0.8-0.7,0.6-1.2,0.2c-9.3-6.8-18-14.2-25.6-22.8c-3.3-3.7-4.4-8.9-3.1-14.2c1.2-4.9,3.8-9,7-12.8
				c6.2-7.4,13.1-14.1,21.4-19.1c17.5-10.6,35.2-11.7,53.3-1.3c13.7,7.8,24.2,18.8,32.6,31.9c4.5,7,8.4,14.2,11.7,21.8
				c11.5,26.6,23,53.1,34.5,79.6c0.6,1.4,1.1,1.5,2.4,0.9c6.7-3,13.5-5.9,20.2-8.8c0.7-0.3,1.4-0.4,2.2-0.1c18,7.3,36,14.7,54,22
				c0.2,0.1,0.4,0.2,0.7,0.3c-0.3,0.6-1,0.6-1.4,0.8c-19.5,8.5-39,17-58.5,25.4c-1.2,0.5-1.5,0.9-0.9,2.3
				c15.9,36.6,31.8,73.2,47.7,109.9c5.3,12.2,14.7,19.6,27.6,22.4c5.7,1.2,11.4,0.5,16.9-0.9c6.2-1.5,12.1-3.8,17.7-6.8
				c7.2-4,13.3-9.3,18.7-15.5c7.9-9,13.8-19.2,18.8-30c6.1-13.1,10.8-26.7,13.5-40.9c2.6-14,2.9-27.9-0.4-41.8
				c-0.7-3.2-1.7-6.4-2.8-9.5c-0.3-0.9-0.6-1-1.4-0.6c-2.1,1.2-4.2,2.3-6.3,3.4c-5.1,2.8-10.6,4.6-16.2,6
				c-8.3,2.1-16.7,2.6-25.1,0.6c-9.3-2.3-16.9-7.3-23.2-14.4c-9.1-10.4-15.8-22.3-18.6-35.9c-2.7-12.9-1.2-25.5,5.7-37
				c4-6.7,9.9-11.6,16.3-15.8c6.4-4.1,13.1-7.5,20.4-9.9c12.6-4.1,25.3-4.6,38-0.8c21.3,6.3,38.7,18.4,52.2,36
				c8.5,11,14.6,23.2,19.2,36.2c8.8,25.3,10,51.2,5.6,77.4c-4.4,25.9-12.5,50.5-25.4,73.5c-10.7,19-24.7,35.1-42.2,48.1
				c-10,7.5-20.7,13.6-32.1,18.6c-10.6,4.7-21.9,6.3-33.4,5.9c-20.4-0.7-39.6-6.1-57.5-15.8c-7.1-3.8-13.6-8.7-18.7-15
				c-0.5-0.7-0.9-1.4-1.2-2.1c-18.4-42.4-36.9-84.9-55.2-127.3c-0.6-1.3-1-1.6-2.4-1c-12.2,5.4-24.5,10.7-36.7,16
				c-0.7,0.3-1.3,0.5-2.2,0.2c-17.9-7.6-35.8-15.1-53.7-22.6C204.4,561.1,204.4,561,204.1,560.8z"/>
		</g>
	</g>
</g>
</svg>
