<?xml version="1.0" encoding="utf-8"?>
<!-- Generator: Adobe Illustrator 25.3.1, SVG Export Plug-In . SVG Version: 6.00 Build 0)  -->
<svg version="1.1" id="Layer_1" xmlns="http://www.w3.org/2000/svg" xmlns:xlink="http://www.w3.org/1999/xlink" x="0px" y="0px"
	 viewBox="0 0 2498 2500" style="enable-background:new 0 0 2498 2500;" xml:space="preserve">
<style type="text/css">
	.st0{fill:#006B4F;}
	.st1{fill:#ED2D43;}
	.st2{fill:#FFFFFF;}
</style>
<g>
	<g>
		<g>
			<g>
				<g>
					<path class="st0" d="M1448.4,2413.6h-769c-123.3,0-223.6-100.3-223.6-223.5V552.4c0-123.4,100.3-223.8,223.6-223.8h769
						c123.3,0,223.6,100.4,223.6,223.8V2190C1672,2313.3,1571.7,2413.6,1448.4,2413.6z M679.4,363c-104.4,0-189.4,85-189.4,189.5
						V2190c0,104.4,85,189.3,189.4,189.3h769c104.4,0,189.4-84.9,189.4-189.3V552.4c0-104.5-85-189.5-189.4-189.5H679.4z"/>
				</g>
				<g>
					<path class="st0" d="M1654.9,595.8h-1182c-9.5,0-17.1-7.7-17.1-17.1c0-9.5,7.7-17.1,17.1-17.1h1182c9.5,0,17.1,7.7,17.1,17.1
						C1672,588.2,1664.4,595.8,1654.9,595.8z"/>
				</g>
				<g>
					<path class="st0" d="M1654.9,2126.8h-1182c-9.5,0-17.1-7.7-17.1-17.1c0-9.5,7.7-17.1,17.1-17.1h1182c9.5,0,17.1,7.7,17.1,17.1
						C1672,2119.2,1664.4,2126.8,1654.9,2126.8z"/>
				</g>
				<g>
					<path class="st0" d="M1214.5,2322H913.2c-9.5,0-17.1-7.7-17.1-17.1v-103.4c0-9.5,7.7-17.1,17.1-17.1h301.3
						c9.5,0,17.1,7.7,17.1,17.1v103.4C1231.7,2314.3,1224,2322,1214.5,2322z M930.4,2287.7h267v-69.1h-267V2287.7z"/>
				</g>
				<g>
					<path class="st0" d="M1208.7,487.5H918.9c-9.5,0-17.1-7.7-17.1-17.1c0-9.5,7.7-17.1,17.1-17.1h289.8c9.5,0,17.1,7.7,17.1,17.1
						C1225.8,479.8,1218.2,487.5,1208.7,487.5z"/>
				</g>
			</g>
		</g>
	</g>
	<circle class="st1" cx="1637.8" cy="530.5" r="480.1"/>
	<g>
		<path class="st2" d="M1412.9,442.3c0.9,0,1.7,0,2.4,0c34.7,0,69.4,0,104.1,0.1c2.1,0,2.4-0.6,2.4-2.5c-0.1-35.6,0-71.2,0-106.8
			c0-9-1.8-17.5-7.6-24.7c-5.4-6.7-12.8-10.3-20.8-12.9c-9.7-3.2-19.5-3.3-29.3-0.7c-2.3,0.6-4.5,1.5-6.3,3.1
			c-0.8,0.7-1.1,0.4-1.6-0.4c-7.5-12.8-14-26.1-18.6-40.1c-2-6.1-0.6-12.8,3.7-18.3c4-5.1,9.2-8.7,14.8-11.5
			c11.1-5.6,22.8-10,35.2-11.7c26.1-3.5,47.7,4.3,63.8,25.8c12.2,16.3,18.9,34.7,22.2,54.6c1.7,10.6,2.7,21.2,2.6,31.9
			c0,37.3,0,74.7-0.1,112c0,2,0.5,2.3,2.4,2.3c9.5-0.1,19,0,28.5-0.1c1,0,1.8,0.2,2.6,1c17.5,17.9,35,35.8,52.6,53.7
			c0.2,0.2,0.4,0.5,0.7,0.8c-0.7,0.5-1.5,0.3-2.1,0.3c-27.4,0-54.9,0-82.3,0c-1.7,0-2.3,0.3-2.3,2.2c0.1,51.5,0,103,0,154.5
			c0,17.2,7.3,30.7,21.2,40.6c6.1,4.4,13.2,6.4,20.5,7.6c8.1,1.4,16.2,1.8,24.4,1c10.6-1,20.5-4.1,30.1-8.7
			c13.9-6.6,26.2-15.6,37.6-25.8c13.9-12.4,26.5-26,37-41.5c10.2-15.2,17.7-31.6,21.1-49.7c0.8-4.2,1.2-8.5,1.6-12.7
			c0.1-1.2-0.2-1.5-1.3-1.4c-3.1,0.3-6.2,0.5-9.3,0.8c-7.5,0.7-14.9,0-22.2-1.2c-10.9-1.8-21.1-5.5-30-12.2
			c-9.8-7.4-16.3-17.3-20-28.9c-5.4-17-7.2-34.5-3.6-52c3.5-16.7,11.7-30.8,25.8-40.9c8.2-5.8,17.6-8.7,27.4-10.3
			c9.7-1.6,19.4-2.1,29.2-1.2c17,1.6,32.3,7.6,45.4,18.6c21.9,18.4,36.3,41.7,43.3,69.5c4.4,17.3,5.4,34.9,4.1,52.7
			c-2.5,34.5-14.5,65.8-33.2,94.5c-18.5,28.4-40.8,53.4-67.8,73.9c-22.4,16.9-47.3,28.8-74.6,35.3c-15.6,3.7-31.5,5.4-47.6,5.6
			c-15,0.1-29.1-3.8-42.6-10.2c-23.8-11.4-43.7-27.6-60-48.2c-6.5-8.2-11.6-17.2-14.4-27.4c-0.3-1.1-0.3-2.1-0.3-3.1
			c0-59.7,0-119.4,0-179.1c0-1.9-0.4-2.4-2.3-2.3c-17.2,0.1-34.4,0-51.6,0.1c-1,0-1.8-0.1-2.6-0.9c-17.3-18.1-34.6-36.2-51.9-54.3
			C1413.1,442.7,1413.1,442.6,1412.9,442.3z"/>
	</g>
</g>
</svg>
