<?xml version="1.0" encoding="utf-8"?>
<!-- Generator: Adobe Illustrator 25.3.1, SVG Export Plug-In . SVG Version: 6.00 Build 0)  -->
<svg version="1.1" id="Layer_1" xmlns="http://www.w3.org/2000/svg" xmlns:xlink="http://www.w3.org/1999/xlink" x="0px" y="0px"
	 viewBox="0 0 2500 2500" style="enable-background:new 0 0 2500 2500;" xml:space="preserve">
<style type="text/css">
	.st0{fill:#006B4F;}
	.st1{fill:#FFFFFF;}
	.st2{fill:#ED2D43;}
	.st3{fill:none;stroke:#231F20;stroke-width:28.8423;stroke-linecap:round;stroke-linejoin:round;stroke-miterlimit:10;}
</style>
<g>
	<g>
		<g>
			<g>
				<g>
					<g>
						<path class="st0" d="M1641.8,1496.8H37.2c-10.4,0-18.8-8.4-18.8-18.8V573.9c0-10.4,8.4-18.8,18.8-18.8h1604.5
							c10.4,0,18.8,8.4,18.8,18.8V1478C1660.5,1488.4,1652.1,1496.8,1641.8,1496.8z M56,1459.3h1567V592.6H56V1459.3z"/>
					</g>
					<g>
						<path class="st0" d="M1641.8,827.1c-139.6,0-253.2-113.6-253.2-253.2c0-10.4,8.4-18.8,18.8-18.8h234.4
							c10.4,0,18.8,8.4,18.8,18.8v234.5C1660.5,818.7,1652.1,827.1,1641.8,827.1z M1426.9,592.6c9,104,92.1,187.2,196.1,196.2V592.6
							H1426.9z"/>
					</g>
					<g>
						<path class="st0" d="M37.2,827.1c-10.4,0-18.8-8.4-18.8-18.8V573.9c0-10.4,8.4-18.8,18.8-18.8h234.5
							c10.4,0,18.8,8.4,18.8,18.8C290.5,713.5,176.9,827.1,37.2,827.1z M56,592.6v196.2c104-9,187.2-92.2,196.2-196.2H56z"/>
					</g>
					<g>
						<path class="st0" d="M272.3,1496.8c-0.1,0-0.3,0-0.6,0H37.2c-10.4,0-18.8-8.4-18.8-18.8v-234.5c0-10.4,8.4-18.8,18.8-18.8
							c138,0,250.6,111,253.2,248.4c0.4,1.5,0.6,3.2,0.6,4.8C291,1488.4,282.6,1496.8,272.3,1496.8z M56,1459.3h196.2
							c-9-104-92.2-187.1-196.2-196.2V1459.3z"/>
					</g>
					<g>
						<path class="st0" d="M1641.8,1496.8h-234.4c-10.4,0-18.8-8.4-18.8-18.8c0-139.6,113.6-253.2,253.2-253.2
							c10.4,0,18.8,8.4,18.8,18.8V1478C1660.5,1488.4,1652.1,1496.8,1641.8,1496.8z M1426.9,1459.3H1623v-196.2
							C1519,1272.1,1435.9,1355.2,1426.9,1459.3z"/>
					</g>
					<g>
						<path class="st0" d="M839.4,1313.2c-158.3,0-287-128.9-287-287.2c0-158.3,128.7-287.2,287-287.2
							c158.3,0,287.2,128.8,287.2,287.2C1126.6,1184.3,997.8,1313.2,839.4,1313.2z M839.4,776.3c-137.6,0-249.5,112-249.5,249.6
							c0,137.7,111.9,249.7,249.5,249.7c137.6,0,249.6-112,249.6-249.7C1089.1,888.3,977.1,776.3,839.4,776.3z"/>
					</g>
				</g>
				<g>
					<path class="st0" d="M749.3,1006.2c0.4,0,0.7,0,1,0c13.9,0,27.8,0,41.8,0c0.8,0,1-0.2,1-1c0-14.3,0-28.6,0-42.9
						c0-3.6-0.7-7-3.1-9.9c-2.2-2.7-5.1-4.1-8.3-5.2c-3.9-1.3-7.8-1.3-11.8-0.3c-0.9,0.2-1.8,0.6-2.5,1.2c-0.3,0.3-0.4,0.2-0.6-0.1
						c-3-5.1-5.6-10.5-7.5-16.1c-0.8-2.5-0.2-5.1,1.5-7.4c1.6-2.1,3.7-3.5,6-4.6c4.5-2.3,9.1-4,14.1-4.7
						c10.5-1.4,19.1,1.7,25.6,10.4c4.9,6.5,7.6,13.9,8.9,21.9c0.7,4.2,1.1,8.5,1.1,12.8c0,15,0,30,0,44.9c0,0.8,0.2,0.9,1,0.9
						c3.8,0,7.6,0,11.4,0c0.4,0,0.7,0.1,1,0.4c7,7.2,14.1,14.4,21.1,21.6c0.1,0.1,0.2,0.2,0.3,0.3c-0.3,0.2-0.6,0.1-0.9,0.1
						c-11,0-22,0-33,0c-0.7,0-0.9,0.1-0.9,0.9c0,20.7,0,41.3,0,62c0,6.9,2.9,12.3,8.5,16.3c2.4,1.8,5.3,2.6,8.2,3.1
						c3.2,0.6,6.5,0.7,9.8,0.4c4.3-0.4,8.2-1.7,12.1-3.5c5.6-2.6,10.5-6.3,15.1-10.4c5.6-5,10.6-10.4,14.8-16.7
						c4.1-6.1,7.1-12.7,8.5-19.9c0.3-1.7,0.5-3.4,0.6-5.1c0-0.5-0.1-0.6-0.5-0.5c-1.2,0.1-2.5,0.2-3.7,0.3c-3,0.3-6,0-8.9-0.5
						c-4.4-0.7-8.5-2.2-12-4.9c-3.9-3-6.5-6.9-8-11.6c-2.2-6.8-2.9-13.8-1.4-20.9c1.4-6.7,4.7-12.4,10.4-16.4
						c3.3-2.3,7.1-3.5,11-4.1c3.9-0.6,7.8-0.9,11.7-0.5c6.8,0.6,13,3.1,18.2,7.5c8.8,7.4,14.6,16.7,17.4,27.9c1.8,7,2.2,14,1.6,21.2
						c-1,13.8-5.8,26.4-13.3,37.9c-7.4,11.4-16.4,21.4-27.2,29.7c-9,6.8-19,11.6-30,14.2c-6.3,1.5-12.6,2.2-19.1,2.2
						c-6,0.1-11.7-1.5-17.1-4.1c-9.5-4.6-17.5-11.1-24.1-19.3c-2.6-3.3-4.7-6.9-5.8-11c-0.1-0.4-0.1-0.8-0.1-1.3c0-24,0-47.9,0-71.9
						c0-0.8-0.2-0.9-0.9-0.9c-6.9,0-13.8,0-20.7,0c-0.4,0-0.7,0-1.1-0.4c-6.9-7.3-13.9-14.5-20.8-21.8
						C749.3,1006.4,749.3,1006.3,749.3,1006.2z"/>
				</g>
			</g>
		</g>
		<rect x="839.5" y="1044.7" class="st1" width="1642" height="904.1"/>
		<g>
			<g>
				<g>
					<g>
						<path class="st2" d="M2462.8,1967.6H858.2c-10.4,0-18.8-8.4-18.8-18.8v-904.1c0-10.4,8.4-18.8,18.8-18.8h1604.5
							c10.4,0,18.8,8.4,18.8,18.8v904.1C2481.5,1959.2,2473.1,1967.6,2462.8,1967.6z M877,1930.1h1567v-866.6H877V1930.1z"/>
					</g>
					<g>
						<path class="st2" d="M2462.8,1298c-139.6,0-253.2-113.6-253.2-253.2c0-10.4,8.4-18.8,18.8-18.8h234.4
							c10.4,0,18.8,8.4,18.8,18.8v234.5C2481.5,1289.6,2473.1,1298,2462.8,1298z M2247.9,1063.5c9,104,92.1,187.2,196.1,196.2
							v-196.2H2247.9z"/>
					</g>
					<g>
						<path class="st2" d="M858.2,1298c-10.4,0-18.8-8.4-18.8-18.8v-234.5c0-10.4,8.4-18.8,18.8-18.8h234.5
							c10.4,0,18.8,8.4,18.8,18.8C1111.5,1184.3,997.9,1298,858.2,1298z M877,1063.5v196.2c104-9,187.2-92.2,196.2-196.2H877z"/>
					</g>
					<g>
						<path class="st2" d="M1093.3,1967.6c-0.1,0-0.3,0-0.6,0H858.2c-10.4,0-18.8-8.4-18.8-18.8v-234.5c0-10.4,8.4-18.8,18.8-18.8
							c138,0,250.6,111,253.2,248.4c0.4,1.5,0.6,3.2,0.6,4.8C1112.1,1959.2,1103.7,1967.6,1093.3,1967.6z M877,1930.1h196.2
							c-9-104-92.2-187.1-196.2-196.2V1930.1z"/>
					</g>
					<g>
						<path class="st2" d="M2462.8,1967.6h-234.4c-10.4,0-18.8-8.4-18.8-18.8c0-139.6,113.6-253.2,253.2-253.2
							c10.4,0,18.8,8.4,18.8,18.8v234.5C2481.5,1959.2,2473.1,1967.6,2462.8,1967.6z M2247.9,1930.1H2444v-196.2
							C2340,1743,2256.9,1826.1,2247.9,1930.1z"/>
					</g>
					<g>
						<path class="st2" d="M1660.5,1784c-158.3,0-287-128.9-287-287.2c0-158.3,128.7-287.2,287-287.2
							c158.3,0,287.2,128.8,287.2,287.2C1947.6,1655.1,1818.8,1784,1660.5,1784z M1660.5,1247.2c-137.6,0-249.5,112-249.5,249.6
							c0,137.7,111.9,249.7,249.5,249.7c137.6,0,249.6-112,249.6-249.7C1910.1,1359.1,1798.1,1247.2,1660.5,1247.2z"/>
					</g>
				</g>
				<g>
					<path class="st2" d="M1570.3,1477c0.4,0,0.7,0,1,0c13.9,0,27.8,0,41.8,0c0.8,0,1-0.2,1-1c0-14.3,0-28.6,0-42.9
						c0-3.6-0.7-7-3.1-9.9c-2.2-2.7-5.1-4.1-8.3-5.2c-3.9-1.3-7.8-1.3-11.8-0.3c-0.9,0.2-1.8,0.6-2.5,1.2c-0.3,0.3-0.4,0.2-0.6-0.1
						c-3-5.1-5.6-10.5-7.5-16.1c-0.8-2.5-0.2-5.1,1.5-7.4c1.6-2.1,3.7-3.5,6-4.6c4.5-2.3,9.1-4,14.1-4.7
						c10.5-1.4,19.1,1.7,25.6,10.4c4.9,6.5,7.6,13.9,8.9,21.9c0.7,4.2,1.1,8.5,1.1,12.8c0,15,0,30,0,44.9c0,0.8,0.2,0.9,1,0.9
						c3.8,0,7.6,0,11.4,0c0.4,0,0.7,0.1,1,0.4c7,7.2,14.1,14.4,21.1,21.6c0.1,0.1,0.2,0.2,0.3,0.3c-0.3,0.2-0.6,0.1-0.9,0.1
						c-11,0-22,0-33,0c-0.7,0-0.9,0.1-0.9,0.9c0,20.7,0,41.3,0,62c0,6.9,2.9,12.3,8.5,16.3c2.4,1.8,5.3,2.6,8.2,3.1
						c3.2,0.6,6.5,0.7,9.8,0.4c4.3-0.4,8.2-1.7,12.1-3.5c5.6-2.6,10.5-6.3,15.1-10.4c5.6-5,10.6-10.4,14.8-16.7
						c4.1-6.1,7.1-12.7,8.5-19.9c0.3-1.7,0.5-3.4,0.6-5.1c0-0.5-0.1-0.6-0.5-0.5c-1.2,0.1-2.5,0.2-3.7,0.3c-3,0.3-6,0-8.9-0.5
						c-4.4-0.7-8.5-2.2-12-4.9c-3.9-3-6.5-6.9-8-11.6c-2.2-6.8-2.9-13.8-1.4-20.9c1.4-6.7,4.7-12.4,10.4-16.4
						c3.3-2.3,7.1-3.5,11-4.1c3.9-0.6,7.8-0.9,11.7-0.5c6.8,0.6,13,3.1,18.2,7.5c8.8,7.4,14.6,16.7,17.4,27.9c1.8,7,2.2,14,1.6,21.2
						c-1,13.8-5.8,26.4-13.3,37.9c-7.4,11.4-16.4,21.4-27.2,29.7c-9,6.8-19,11.6-30,14.2c-6.3,1.5-12.6,2.2-19.1,2.2
						c-6,0.1-11.7-1.5-17.1-4.1c-9.5-4.6-17.5-11.1-24.1-19.3c-2.6-3.3-4.7-6.9-5.8-11c-0.1-0.4-0.1-0.8-0.1-1.3c0-24,0-47.9,0-71.9
						c0-0.8-0.2-0.9-0.9-0.9c-6.9,0-13.8,0-20.7,0c-0.4,0-0.7,0-1.1-0.4c-6.9-7.3-13.9-14.5-20.8-21.8
						C1570.4,1477.2,1570.4,1477.1,1570.3,1477z"/>
				</g>
			</g>
		</g>
	</g>
	<g>
		<path class="st3" d="M571.4,1784l72.2,91.2c-369.6,6.7-391.5-267.3-391.5-267.3"/>
		<line class="st3" x1="519.3" y1="1930.1" x2="643.7" y2="1875.2"/>
	</g>
	<g>
		<path class="st3" d="M1928.7,773.8l-72.2-91.2c369.6-6.7,391.5,267.3,391.5,267.3"/>
		<line class="st3" x1="1980.8" y1="627.7" x2="1856.4" y2="682.6"/>
	</g>
</g>
</svg>
